<svg width="192" height="192" viewBox="0 0 192 192" xmlns="http://www.w3.org/2000/svg">
  <rect width="192" height="192" fill="#2563eb" rx="24"/>
  <g fill="white" transform="translate(32, 32)">
    <!-- 细胞存储图标 -->
    <rect x="20" y="20" width="88" height="88" fill="none" stroke="white" stroke-width="3" rx="8"/>
    <rect x="30" y="30" width="68" height="68" fill="none" stroke="white" stroke-width="2" rx="4"/>
    
    <!-- 网格线 -->
    <line x1="20" y1="44" x2="108" y2="44" stroke="white" stroke-width="1" opacity="0.6"/>
    <line x1="20" y1="64" x2="108" y2="64" stroke="white" stroke-width="1" opacity="0.6"/>
    <line x1="20" y1="84" x2="108" y2="84" stroke="white" stroke-width="1" opacity="0.6"/>
    
    <line x1="44" y1="20" x2="44" y2="108" stroke="white" stroke-width="1" opacity="0.6"/>
    <line x1="64" y1="20" x2="64" y2="108" stroke="white" stroke-width="1" opacity="0.6"/>
    <line x1="84" y1="20" x2="84" y2="108" stroke="white" stroke-width="1" opacity="0.6"/>
    
    <!-- 细胞样本点 -->
    <circle cx="38" cy="38" r="4" fill="#60a5fa"/>
    <circle cx="58" cy="38" r="4" fill="#34d399"/>
    <circle cx="78" cy="38" r="4" fill="#f87171"/>
    <circle cx="38" cy="58" r="4" fill="#fbbf24"/>
    <circle cx="78" cy="58" r="4" fill="#a78bfa"/>
    <circle cx="58" cy="78" r="4" fill="#fb7185"/>
    
    <!-- 标题文字 -->
    <text x="64" y="125" text-anchor="middle" font-family="Arial, sans-serif" font-size="12" font-weight="bold" fill="white">Cell Storage</text>
  </g>
</svg>