<svg width="192" height="192" viewBox="0 0 192 192" fill="none" xmlns="http://www.w3.org/2000/svg">
  <rect width="192" height="192" rx="24" fill="#2563eb"/>
  <path d="M96 48C124.169 48 144 67.8309 144 96C144 124.169 124.169 144 96 144C67.8309 144 48 124.169 48 96C48 67.8309 67.8309 48 96 48Z" fill="white" fill-opacity="0.2"/>
  <path d="M96 64C115.882 64 128 76.1177 128 96C128 115.882 115.882 128 96 128C76.1177 128 64 115.882 64 96C64 76.1177 76.1177 64 96 64Z" fill="white"/>
  <path d="M96 80C107.046 80 112 84.9543 112 96C112 107.046 107.046 112 96 112C84.9543 112 80 107.046 80 96C80 84.9543 84.9543 80 96 80Z" fill="#2563eb"/>
  <rect x="88" y="88" width="16" height="16" rx="2" fill="white"/>
</svg>